P2
100 100
255
0 2 5 7 10 12 15 18 20 23 25 28 30 33 36 38 41 43 46 48 51 54 56 59 61 64 66 69 72 74 77 79 82 84 87 90 92 95 97 100 103 105 108 110 113 115 118 121 123 126 128 131 133 136 139 141 144 146 149 151 154 157 159 162 164 167 169 172 175 177 180 182 185 188 190 193 195 198 200 203 206 208 211 213 216 218 221 224 226 229 231 234 236 239 242 244 247 249 252 254 
0 2 5 7 10 12 15 18 20 23 25 28 30 33 36 38 41 43 46 48 51 54 56 59 61 64 66 69 72 74 77 79 82 84 87 90 92 95 97 100 103 105 108 110 113 115 118 121 123 126 128 131 133 136 139 141 144 146 149 151 154 157 159 162 164 167 169 172 175 177 180 182 185 188 190 193 195 198 200 203 206 208 211 213 216 218 221 224 226 229 231 234 236 239 242 244 247 249 252 254 
0 2 5 7 10 12 15 18 20 23 25 28 30 33 36 38 41 43 46 48 51 54 56 59 61 64 66 69 72 74 77 79 82 84 87 90 92 95 97 100 103 105 108 110 113 115 118 121 123 126 128 131 133 136 139 141 144 146 149 151 154 157 159 162 164 167 169 172 175 177 180 182 185 188 190 193 195 198 200 203 206 208 211 213 216 218 221 224 226 229 231 234 236 239 242 244 247 249 252 254 
0 2 5 7 10 12 15 18 20 23 25 28 30 33 36 38 41 43 46 48 51 54 56 59 61 64 66 69 72 74 77 79 82 84 87 90 92 95 97 100 103 105 108 110 113 115 118 121 123 126 128 131 133 136 139 141 144 146 149 151 154 157 159 162 164 167 169 172 175 177 180 182 185 188 190 193 195 198 200 203 206 208 211 213 216 218 221 224 226 229 231 234 236 239 242 244 247 249 252 254 
0 2 5 7 10 12 15 18 20 23 25 28 30 33 36 38 41 43 46 48 51 54 56 59 61 64 66 69 72 74 77 79 82 84 87 90 92 95 97 100 103 105 108 110 113 115 118 121 123 126 128 131 133 136 139 141 144 146 149 151 154 157 159 162 164 167 169 172 175 177 180 182 185 188 190 193 195 198 200 203 206 208 211 213 216 218 221 224 226 229 231 234 236 239 242 244 247 249 252 254 
0 2 5 7 10 12 15 18 20 23 25 28 30 33 36 38 41 43 46 48 51 54 56 59 61 64 66 69 72 74 77 79 82 84 87 90 92 95 97 100 103 105 108 110 113 115 118 121 123 126 128 131 133 136 139 141 144 146 149 151 154 157 159 162 164 167 169 172 175 177 180 182 185 188 190 193 195 198 200 203 206 208 211 213 216 218 221 224 226 229 231 234 236 239 242 244 247 249 252 254 
0 2 5 7 10 12 15 18 20 23 25 28 30 33 36 38 41 43 46 48 51 54 56 59 61 64 66 69 72 74 77 79 82 84 87 90 92 95 97 100 103 105 108 110 113 115 118 121 123 126 128 131 133 136 139 141 144 146 149 151 154 157 159 162 164 167 169 172 175 177 180 182 185 188 190 193 195 198 200 203 206 208 211 213 216 218 221 224 226 229 231 234 236 239 242 244 247 249 252 254 
0 2 5 7 10 12 15 18 20 23 25 28 30 33 36 38 41 43 46 48 51 54 56 59 61 64 66 69 72 74 77 79 82 84 87 90 92 95 97 100 103 105 108 110 113 115 118 121 123 126 128 131 133 136 139 141 144 146 149 151 154 157 159 162 164 167 169 172 175 177 180 182 185 188 190 193 195 198 200 203 206 208 211 213 216 218 221 224 226 229 231 234 236 239 242 244 247 249 252 254 
0 2 5 7 10 12 15 18 20 23 25 28 30 33 36 38 41 43 46 48 51 54 56 59 61 64 66 69 72 74 77 79 82 84 87 90 92 95 97 100 103 105 108 110 113 115 118 121 123 126 128 131 133 136 139 141 144 146 149 151 154 157 159 162 164 167 169 172 175 177 180 182 185 188 190 193 195 198 200 203 206 208 211 213 216 218 221 224 226 229 231 234 236 239 242 244 247 249 252 254 
0 2 5 7 10 12 15 18 20 23 25 28 30 33 36 38 41 43 46 48 51 54 56 59 61 64 66 69 72 74 77 79 82 84 87 90 92 95 97 100 103 105 108 110 113 115 118 121 123 126 128 131 133 136 139 141 144 146 149 151 154 157 159 162 164 167 169 172 175 177 180 182 185 188 190 193 195 198 200 203 206 208 211 213 216 218 221 224 226 229 231 234 236 239 242 244 247 249 252 254 
0 2 5 7 10 12 15 18 20 23 25 28 30 33 36 38 41 43 46 48 51 54 56 59 61 64 66 69 72 74 77 79 82 84 87 90 92 95 97 100 103 105 108 110 113 115 118 121 123 126 128 131 133 136 139 141 144 146 149 151 154 157 159 162 164 167 169 172 175 177 180 182 185 188 190 193 195 198 200 203 206 208 211 213 216 218 221 224 226 229 231 234 236 239 242 244 247 249 252 254 
0 2 5 7 10 12 15 18 20 23 25 28 30 33 36 38 41 43 46 48 51 54 56 59 61 64 66 69 72 74 77 79 82 84 87 90 92 95 97 100 103 105 108 110 113 115 118 121 123 126 128 131 133 136 139 141 144 146 149 151 154 157 159 162 164 167 169 172 175 177 180 182 185 188 190 193 195 198 200 203 206 208 211 213 216 218 221 224 226 229 231 234 236 239 242 244 247 249 252 254 
0 2 5 7 10 12 15 18 20 23 25 28 30 33 36 38 41 43 46 48 51 54 56 59 61 64 66 69 72 74 77 79 82 84 87 90 92 95 97 100 103 105 108 110 113 115 118 121 123 126 128 131 133 136 139 141 144 146 149 151 154 157 159 162 164 167 169 172 175 177 180 182 185 188 190 193 195 198 200 203 206 208 211 213 216 218 221 224 226 229 231 234 236 239 242 244 247 249 252 254 
0 2 5 7 10 12 15 18 20 23 25 28 30 33 36 38 41 43 46 48 51 54 56 59 61 64 66 69 72 74 77 79 82 84 87 90 92 95 97 100 103 105 108 110 113 115 118 121 123 126 128 131 133 136 139 141 144 146 149 151 154 157 159 162 164 167 169 172 175 177 180 182 185 188 190 193 195 198 200 203 206 208 211 213 216 218 221 224 226 229 231 234 236 239 242 244 247 249 252 254 
0 2 5 7 10 12 15 18 20 23 25 28 30 33 36 38 41 43 46 48 51 54 56 59 61 64 66 69 72 74 77 79 82 84 87 90 92 95 97 100 103 105 108 110 113 115 118 121 123 126 128 131 133 136 139 141 144 146 149 151 154 157 159 162 164 167 169 172 175 177 180 182 185 188 190 193 195 198 200 203 206 208 211 213 216 218 221 224 226 229 231 234 236 239 242 244 247 249 252 254 
0 2 5 7 10 12 15 18 20 23 25 28 30 33 36 38 41 43 46 48 51 54 56 59 61 64 66 69 72 74 77 79 82 84 87 90 92 95 97 100 103 105 108 110 113 115 118 121 123 126 128 131 133 136 139 141 144 146 149 151 154 157 159 162 164 167 169 172 175 177 180 182 185 188 190 193 195 198 200 203 206 208 211 213 216 218 221 224 226 229 231 234 236 239 242 244 247 249 252 254 
0 2 5 7 10 12 15 18 20 23 25 28 30 33 36 38 41 43 46 48 51 54 56 59 61 64 66 69 72 74 77 79 82 84 87 90 92 95 97 100 103 105 108 110 113 115 118 121 123 126 128 131 133 136 139 141 144 146 149 151 154 157 159 162 164 167 169 172 175 177 180 182 185 188 190 193 195 198 200 203 206 208 211 213 216 218 221 224 226 229 231 234 236 239 242 244 247 249 252 254 
0 2 5 7 10 12 15 18 20 23 25 28 30 33 36 38 41 43 46 48 51 54 56 59 61 64 66 69 72 74 77 79 82 84 87 90 92 95 97 100 103 105 108 110 113 115 118 121 123 126 128 131 133 136 139 141 144 146 149 151 154 157 159 162 164 167 169 172 175 177 180 182 185 188 190 193 195 198 200 203 206 208 211 213 216 218 221 224 226 229 231 234 236 239 242 244 247 249 252 254 
0 2 5 7 10 12 15 18 20 23 25 28 30 33 36 38 41 43 46 48 51 54 56 59 61 64 66 69 72 74 77 79 82 84 87 90 92 95 97 100 103 105 108 110 113 115 118 121 123 126 128 131 133 136 139 141 144 146 149 151 154 157 159 162 164 167 169 172 175 177 180 182 185 188 190 193 195 198 200 203 206 208 211 213 216 218 221 224 226 229 231 234 236 239 242 244 247 249 252 254 
0 2 5 7 10 12 15 18 20 23 25 28 30 33 36 38 41 43 46 48 51 54 56 59 61 64 66 69 72 74 77 79 82 84 87 90 92 95 97 100 103 105 108 110 113 115 118 121 123 126 128 131 133 136 139 141 144 146 149 151 154 157 159 162 164 167 169 172 175 177 180 182 185 188 190 193 195 198 200 203 206 208 211 213 216 218 221 224 226 229 231 234 236 239 242 244 247 249 252 254 
0 2 5 7 10 12 15 18 20 23 25 28 30 33 36 38 41 43 46 48 51 54 56 59 61 64 66 69 72 74 77 79 82 84 87 90 92 95 97 100 103 105 108 110 113 115 118 121 123 126 128 131 133 136 139 141 144 146 149 151 154 157 159 162 164 167 169 172 175 177 180 182 185 188 190 193 195 198 200 203 206 208 211 213 216 218 221 224 226 229 231 234 236 239 242 244 247 249 252 254 
0 2 5 7 10 12 15 18 20 23 25 28 30 33 36 38 41 43 46 48 51 54 56 59 61 64 66 69 72 74 77 79 82 84 87 90 92 95 97 100 103 105 108 110 113 115 118 121 123 126 128 131 133 136 139 141 144 146 149 151 154 157 159 162 164 167 169 172 175 177 180 182 185 188 190 193 195 198 200 203 206 208 211 213 216 218 221 224 226 229 231 234 236 239 242 244 247 249 252 254 
0 2 5 7 10 12 15 18 20 23 25 28 30 33 36 38 41 43 46 48 51 54 56 59 61 64 66 69 72 74 77 79 82 84 87 90 92 95 97 100 103 105 108 110 113 115 118 121 123 126 128 131 133 136 139 141 144 146 149 151 154 157 159 162 164 167 169 172 175 177 180 182 185 188 190 193 195 198 200 203 206 208 211 213 216 218 221 224 226 229 231 234 236 239 242 244 247 249 252 254 
0 2 5 7 10 12 15 18 20 23 25 28 30 33 36 38 41 43 46 48 51 54 56 59 61 64 66 69 72 74 77 79 82 84 87 90 92 95 97 100 103 105 108 110 113 115 118 121 123 126 128 131 133 136 139 141 144 146 149 151 154 157 159 162 164 167 169 172 175 177 180 182 185 188 190 193 195 198 200 203 206 208 211 213 216 218 221 224 226 229 231 234 236 239 242 244 247 249 252 254 
0 2 5 7 10 12 15 18 20 23 25 28 30 33 36 38 41 43 46 48 51 54 56 59 61 64 66 69 72 74 77 79 82 84 87 90 92 95 97 100 103 105 108 110 113 115 118 121 123 126 128 131 133 136 139 141 144 146 149 151 154 157 159 162 164 167 169 172 175 177 180 182 185 188 190 193 195 198 200 203 206 208 211 213 216 218 221 224 226 229 231 234 236 239 242 244 247 249 252 254 
0 2 5 7 10 12 15 18 20 23 25 28 30 33 36 38 41 43 46 48 51 54 56 59 61 64 66 69 72 74 77 79 82 84 87 90 92 95 97 100 103 105 108 110 113 115 118 121 123 126 128 131 133 136 139 141 144 146 149 151 154 157 159 162 164 167 169 172 175 177 180 182 185 188 190 193 195 198 200 203 206 208 211 213 216 218 221 224 226 229 231 234 236 239 242 244 247 249 252 254 
0 2 5 7 10 12 15 18 20 23 25 28 30 33 36 38 41 43 46 48 51 54 56 59 61 64 66 69 72 74 77 79 82 84 87 90 92 95 97 100 103 105 108 110 113 115 118 121 123 126 128 131 133 136 139 141 144 146 149 151 154 157 159 162 164 167 169 172 175 177 180 182 185 188 190 193 195 198 200 203 206 208 211 213 216 218 221 224 226 229 231 234 236 239 242 244 247 249 252 254 
0 2 5 7 10 12 15 18 20 23 25 28 30 33 36 38 41 43 46 48 51 54 56 59 61 64 66 69 72 74 77 79 82 84 87 90 92 95 97 100 103 105 108 110 113 115 118 121 123 126 128 131 133 136 139 141 144 146 149 151 154 157 159 162 164 167 169 172 175 177 180 182 185 188 190 193 195 198 200 203 206 208 211 213 216 218 221 224 226 229 231 234 236 239 242 244 247 249 252 254 
0 2 5 7 10 12 15 18 20 23 25 28 30 33 36 38 41 43 46 48 51 54 56 59 61 64 66 69 72 74 77 79 82 84 87 90 92 95 97 100 103 105 108 110 113 115 118 121 123 126 128 131 133 136 139 141 144 146 149 151 154 157 159 162 164 167 169 172 175 177 180 182 185 188 190 193 195 198 200 203 206 208 211 213 216 218 221 224 226 229 231 234 236 239 242 244 247 249 252 254 
0 2 5 7 10 12 15 18 20 23 25 28 30 33 36 38 41 43 46 48 51 54 56 59 61 64 66 69 72 74 77 79 82 84 87 90 92 95 97 100 103 105 108 110 113 115 118 121 123 126 128 131 133 136 139 141 144 146 149 151 154 157 159 162 164 167 169 172 175 177 180 182 185 188 190 193 195 198 200 203 206 208 211 213 216 218 221 224 226 229 231 234 236 239 242 244 247 249 252 254 
0 2 5 7 10 12 15 18 20 23 25 28 30 33 36 38 41 43 46 48 51 54 56 59 61 64 66 69 72 74 77 79 82 84 87 90 92 95 97 100 103 105 108 110 113 115 118 121 123 126 128 131 133 136 139 141 144 146 149 151 154 157 159 162 164 167 169 172 175 177 180 182 185 188 190 193 195 198 200 203 206 208 211 213 216 218 221 224 226 229 231 234 236 239 242 244 247 249 252 254 
0 2 5 7 10 12 15 18 20 23 25 28 30 33 36 38 41 43 46 48 51 54 56 59 61 64 66 69 72 74 77 79 82 84 87 90 92 95 97 100 103 105 108 110 113 115 118 121 123 126 128 131 133 136 139 141 144 146 149 151 154 157 159 162 164 167 169 172 175 177 180 182 185 188 190 193 195 198 200 203 206 208 211 213 216 218 221 224 226 229 231 234 236 239 242 244 247 249 252 254 
0 2 5 7 10 12 15 18 20 23 25 28 30 33 36 38 41 43 46 48 51 54 56 59 61 64 66 69 72 74 77 79 82 84 87 90 92 95 97 100 103 105 108 110 113 115 118 121 123 126 128 131 133 136 139 141 144 146 149 151 154 157 159 162 164 167 169 172 175 177 180 182 185 188 190 193 195 198 200 203 206 208 211 213 216 218 221 224 226 229 231 234 236 239 242 244 247 249 252 254 
0 2 5 7 10 12 15 18 20 23 25 28 30 33 36 38 41 43 46 48 51 54 56 59 61 64 66 69 72 74 77 79 82 84 87 90 92 95 97 100 103 105 108 110 113 115 118 121 123 126 128 131 133 136 139 141 144 146 149 151 154 157 159 162 164 167 169 172 175 177 180 182 185 188 190 193 195 198 200 203 206 208 211 213 216 218 221 224 226 229 231 234 236 239 242 244 247 249 252 254 
0 2 5 7 10 12 15 18 20 23 25 28 30 33 36 38 41 43 46 48 51 54 56 59 61 64 66 69 72 74 77 79 82 84 87 90 92 95 97 100 103 105 108 110 113 115 118 121 123 126 128 131 133 136 139 141 144 146 149 151 154 157 159 162 164 167 169 172 175 177 180 182 185 188 190 193 195 198 200 203 206 208 211 213 216 218 221 224 226 229 231 234 236 239 242 244 247 249 252 254 
0 2 5 7 10 12 15 18 20 23 25 28 30 33 36 38 41 43 46 48 51 54 56 59 61 64 66 69 72 74 77 79 82 84 87 90 92 95 97 100 103 105 108 110 113 115 118 121 123 126 128 131 133 136 139 141 144 146 149 151 154 157 159 162 164 167 169 172 175 177 180 182 185 188 190 193 195 198 200 203 206 208 211 213 216 218 221 224 226 229 231 234 236 239 242 244 247 249 252 254 
0 2 5 7 10 12 15 18 20 23 25 28 30 33 36 38 41 43 46 48 51 54 56 59 61 64 66 69 72 74 77 79 82 84 87 90 92 95 97 100 103 105 108 110 113 115 118 121 123 126 128 131 133 136 139 141 144 146 149 151 154 157 159 162 164 167 169 172 175 177 180 182 185 188 190 193 195 198 200 203 206 208 211 213 216 218 221 224 226 229 231 234 236 239 242 244 247 249 252 254 
0 2 5 7 10 12 15 18 20 23 25 28 30 33 36 38 41 43 46 48 51 54 56 59 61 64 66 69 72 74 77 79 82 84 87 90 92 95 97 100 103 105 108 110 113 115 118 121 123 126 128 131 133 136 139 141 144 146 149 151 154 157 159 162 164 167 169 172 175 177 180 182 185 188 190 193 195 198 200 203 206 208 211 213 216 218 221 224 226 229 231 234 236 239 242 244 247 249 252 254 
0 2 5 7 10 12 15 18 20 23 25 28 30 33 36 38 41 43 46 48 51 54 56 59 61 64 66 69 72 74 77 79 82 84 87 90 92 95 97 100 103 105 108 110 113 115 118 121 123 126 128 131 133 136 139 141 144 146 149 151 154 157 159 162 164 167 169 172 175 177 180 182 185 188 190 193 195 198 200 203 206 208 211 213 216 218 221 224 226 229 231 234 236 239 242 244 247 249 252 254 
0 2 5 7 10 12 15 18 20 23 25 28 30 33 36 38 41 43 46 48 51 54 56 59 61 64 66 69 72 74 77 79 82 84 87 90 92 95 97 100 103 105 108 110 113 115 118 121 123 126 128 131 133 136 139 141 144 146 149 151 154 157 159 162 164 167 169 172 175 177 180 182 185 188 190 193 195 198 200 203 206 208 211 213 216 218 221 224 226 229 231 234 236 239 242 244 247 249 252 254 
0 2 5 7 10 12 15 18 20 23 25 28 30 33 36 38 41 43 46 48 51 54 56 59 61 64 66 69 72 74 77 79 82 84 87 90 92 95 97 100 103 105 108 110 113 115 118 121 123 126 128 131 133 136 139 141 144 146 149 151 154 157 159 162 164 167 169 172 175 177 180 182 185 188 190 193 195 198 200 203 206 208 211 213 216 218 221 224 226 229 231 234 236 239 242 244 247 249 252 254 
0 2 5 7 10 12 15 18 20 23 25 28 30 33 36 38 41 43 46 48 51 54 56 59 61 64 66 69 72 74 77 79 82 84 87 90 92 95 97 100 103 105 108 110 113 115 118 121 123 126 128 131 133 136 139 141 144 146 149 151 154 157 159 162 164 167 169 172 175 177 180 182 185 188 190 193 195 198 200 203 206 208 211 213 216 218 221 224 226 229 231 234 236 239 242 244 247 249 252 254 
0 2 5 7 10 12 15 18 20 23 25 28 30 33 36 38 41 43 46 48 51 54 56 59 61 64 66 69 72 74 77 79 82 84 87 90 92 95 97 100 103 105 108 110 113 115 118 121 123 126 128 131 133 136 139 141 144 146 149 151 154 157 159 162 164 167 169 172 175 177 180 182 185 188 190 193 195 198 200 203 206 208 211 213 216 218 221 224 226 229 231 234 236 239 242 244 247 249 252 254 
0 2 5 7 10 12 15 18 20 23 25 28 30 33 36 38 41 43 46 48 51 54 56 59 61 64 66 69 72 74 77 79 82 84 87 90 92 95 97 100 103 105 108 110 113 115 118 121 123 126 128 131 133 136 139 141 144 146 149 151 154 157 159 162 164 167 169 172 175 177 180 182 185 188 190 193 195 198 200 203 206 208 211 213 216 218 221 224 226 229 231 234 236 239 242 244 247 249 252 254 
0 2 5 7 10 12 15 18 20 23 25 28 30 33 36 38 41 43 46 48 51 54 56 59 61 64 66 69 72 74 77 79 82 84 87 90 92 95 97 100 103 105 108 110 113 115 118 121 123 126 128 131 133 136 139 141 144 146 149 151 154 157 159 162 164 167 169 172 175 177 180 182 185 188 190 193 195 198 200 203 206 208 211 213 216 218 221 224 226 229 231 234 236 239 242 244 247 249 252 254 
0 2 5 7 10 12 15 18 20 23 25 28 30 33 36 38 41 43 46 48 51 54 56 59 61 64 66 69 72 74 77 79 82 84 87 90 92 95 97 100 103 105 108 110 113 115 118 121 123 126 128 131 133 136 139 141 144 146 149 151 154 157 159 162 164 167 169 172 175 177 180 182 185 188 190 193 195 198 200 203 206 208 211 213 216 218 221 224 226 229 231 234 236 239 242 244 247 249 252 254 
0 2 5 7 10 12 15 18 20 23 25 28 30 33 36 38 41 43 46 48 51 54 56 59 61 64 66 69 72 74 77 79 82 84 87 90 92 95 97 100 103 105 108 110 113 115 118 121 123 126 128 131 133 136 139 141 144 146 149 151 154 157 159 162 164 167 169 172 175 177 180 182 185 188 190 193 195 198 200 203 206 208 211 213 216 218 221 224 226 229 231 234 236 239 242 244 247 249 252 254 
0 2 5 7 10 12 15 18 20 23 25 28 30 33 36 38 41 43 46 48 51 54 56 59 61 64 66 69 72 74 77 79 82 84 87 90 92 95 97 100 103 105 108 110 113 115 118 121 123 126 128 131 133 136 139 141 144 146 149 151 154 157 159 162 164 167 169 172 175 177 180 182 185 188 190 193 195 198 200 203 206 208 211 213 216 218 221 224 226 229 231 234 236 239 242 244 247 249 252 254 
0 2 5 7 10 12 15 18 20 23 25 28 30 33 36 38 41 43 46 48 51 54 56 59 61 64 66 69 72 74 77 79 82 84 87 90 92 95 97 100 103 105 108 110 113 115 118 121 123 126 128 131 133 136 139 141 144 146 149 151 154 157 159 162 164 167 169 172 175 177 180 182 185 188 190 193 195 198 200 203 206 208 211 213 216 218 221 224 226 229 231 234 236 239 242 244 247 249 252 254 
0 2 5 7 10 12 15 18 20 23 25 28 30 33 36 38 41 43 46 48 51 54 56 59 61 64 66 69 72 74 77 79 82 84 87 90 92 95 97 100 103 105 108 110 113 115 118 121 123 126 128 131 133 136 139 141 144 146 149 151 154 157 159 162 164 167 169 172 175 177 180 182 185 188 190 193 195 198 200 203 206 208 211 213 216 218 221 224 226 229 231 234 236 239 242 244 247 249 252 254 
0 2 5 7 10 12 15 18 20 23 25 28 30 33 36 38 41 43 46 48 51 54 56 59 61 64 66 69 72 74 77 79 82 84 87 90 92 95 97 100 103 105 108 110 113 115 118 121 123 126 128 131 133 136 139 141 144 146 149 151 154 157 159 162 164 167 169 172 175 177 180 182 185 188 190 193 195 198 200 203 206 208 211 213 216 218 221 224 226 229 231 234 236 239 242 244 247 249 252 254 
0 2 5 7 10 12 15 18 20 23 25 28 30 33 36 38 41 43 46 48 51 54 56 59 61 64 66 69 72 74 77 79 82 84 87 90 92 95 97 100 103 105 108 110 113 115 118 121 123 126 128 131 133 136 139 141 144 146 149 151 154 157 159 162 164 167 169 172 175 177 180 182 185 188 190 193 195 198 200 203 206 208 211 213 216 218 221 224 226 229 231 234 236 239 242 244 247 249 252 254 
0 2 5 7 10 12 15 18 20 23 25 28 30 33 36 38 41 43 46 48 51 54 56 59 61 64 66 69 72 74 77 79 82 84 87 90 92 95 97 100 103 105 108 110 113 115 118 121 123 126 128 131 133 136 139 141 144 146 149 151 154 157 159 162 164 167 169 172 175 177 180 182 185 188 190 193 195 198 200 203 206 208 211 213 216 218 221 224 226 229 231 234 236 239 242 244 247 249 252 254 
0 2 5 7 10 12 15 18 20 23 25 28 30 33 36 38 41 43 46 48 51 54 56 59 61 64 66 69 72 74 77 79 82 84 87 90 92 95 97 100 103 105 108 110 113 115 118 121 123 126 128 131 133 136 139 141 144 146 149 151 154 157 159 162 164 167 169 172 175 177 180 182 185 188 190 193 195 198 200 203 206 208 211 213 216 218 221 224 226 229 231 234 236 239 242 244 247 249 252 254 
0 2 5 7 10 12 15 18 20 23 25 28 30 33 36 38 41 43 46 48 51 54 56 59 61 64 66 69 72 74 77 79 82 84 87 90 92 95 97 100 103 105 108 110 113 115 118 121 123 126 128 131 133 136 139 141 144 146 149 151 154 157 159 162 164 167 169 172 175 177 180 182 185 188 190 193 195 198 200 203 206 208 211 213 216 218 221 224 226 229 231 234 236 239 242 244 247 249 252 254 
0 2 5 7 10 12 15 18 20 23 25 28 30 33 36 38 41 43 46 48 51 54 56 59 61 64 66 69 72 74 77 79 82 84 87 90 92 95 97 100 103 105 108 110 113 115 118 121 123 126 128 131 133 136 139 141 144 146 149 151 154 157 159 162 164 167 169 172 175 177 180 182 185 188 190 193 195 198 200 203 206 208 211 213 216 218 221 224 226 229 231 234 236 239 242 244 247 249 252 254 
0 2 5 7 10 12 15 18 20 23 25 28 30 33 36 38 41 43 46 48 51 54 56 59 61 64 66 69 72 74 77 79 82 84 87 90 92 95 97 100 103 105 108 110 113 115 118 121 123 126 128 131 133 136 139 141 144 146 149 151 154 157 159 162 164 167 169 172 175 177 180 182 185 188 190 193 195 198 200 203 206 208 211 213 216 218 221 224 226 229 231 234 236 239 242 244 247 249 252 254 
0 2 5 7 10 12 15 18 20 23 25 28 30 33 36 38 41 43 46 48 51 54 56 59 61 64 66 69 72 74 77 79 82 84 87 90 92 95 97 100 103 105 108 110 113 115 118 121 123 126 128 131 133 136 139 141 144 146 149 151 154 157 159 162 164 167 169 172 175 177 180 182 185 188 190 193 195 198 200 203 206 208 211 213 216 218 221 224 226 229 231 234 236 239 242 244 247 249 252 254 
0 2 5 7 10 12 15 18 20 23 25 28 30 33 36 38 41 43 46 48 51 54 56 59 61 64 66 69 72 74 77 79 82 84 87 90 92 95 97 100 103 105 108 110 113 115 118 121 123 126 128 131 133 136 139 141 144 146 149 151 154 157 159 162 164 167 169 172 175 177 180 182 185 188 190 193 195 198 200 203 206 208 211 213 216 218 221 224 226 229 231 234 236 239 242 244 247 249 252 254 
0 2 5 7 10 12 15 18 20 23 25 28 30 33 36 38 41 43 46 48 51 54 56 59 61 64 66 69 72 74 77 79 82 84 87 90 92 95 97 100 103 105 108 110 113 115 118 121 123 126 128 131 133 136 139 141 144 146 149 151 154 157 159 162 164 167 169 172 175 177 180 182 185 188 190 193 195 198 200 203 206 208 211 213 216 218 221 224 226 229 231 234 236 239 242 244 247 249 252 254 
0 2 5 7 10 12 15 18 20 23 25 28 30 33 36 38 41 43 46 48 51 54 56 59 61 64 66 69 72 74 77 79 82 84 87 90 92 95 97 100 103 105 108 110 113 115 118 121 123 126 128 131 133 136 139 141 144 146 149 151 154 157 159 162 164 167 169 172 175 177 180 182 185 188 190 193 195 198 200 203 206 208 211 213 216 218 221 224 226 229 231 234 236 239 242 244 247 249 252 254 
0 2 5 7 10 12 15 18 20 23 25 28 30 33 36 38 41 43 46 48 51 54 56 59 61 64 66 69 72 74 77 79 82 84 87 90 92 95 97 100 103 105 108 110 113 115 118 121 123 126 128 131 133 136 139 141 144 146 149 151 154 157 159 162 164 167 169 172 175 177 180 182 185 188 190 193 195 198 200 203 206 208 211 213 216 218 221 224 226 229 231 234 236 239 242 244 247 249 252 254 
0 2 5 7 10 12 15 18 20 23 25 28 30 33 36 38 41 43 46 48 51 54 56 59 61 64 66 69 72 74 77 79 82 84 87 90 92 95 97 100 103 105 108 110 113 115 118 121 123 126 128 131 133 136 139 141 144 146 149 151 154 157 159 162 164 167 169 172 175 177 180 182 185 188 190 193 195 198 200 203 206 208 211 213 216 218 221 224 226 229 231 234 236 239 242 244 247 249 252 254 
0 2 5 7 10 12 15 18 20 23 25 28 30 33 36 38 41 43 46 48 51 54 56 59 61 64 66 69 72 74 77 79 82 84 87 90 92 95 97 100 103 105 108 110 113 115 118 121 123 126 128 131 133 136 139 141 144 146 149 151 154 157 159 162 164 167 169 172 175 177 180 182 185 188 190 193 195 198 200 203 206 208 211 213 216 218 221 224 226 229 231 234 236 239 242 244 247 249 252 254 
0 2 5 7 10 12 15 18 20 23 25 28 30 33 36 38 41 43 46 48 51 54 56 59 61 64 66 69 72 74 77 79 82 84 87 90 92 95 97 100 103 105 108 110 113 115 118 121 123 126 128 131 133 136 139 141 144 146 149 151 154 157 159 162 164 167 169 172 175 177 180 182 185 188 190 193 195 198 200 203 206 208 211 213 216 218 221 224 226 229 231 234 236 239 242 244 247 249 252 254 
0 2 5 7 10 12 15 18 20 23 25 28 30 33 36 38 41 43 46 48 51 54 56 59 61 64 66 69 72 74 77 79 82 84 87 90 92 95 97 100 103 105 108 110 113 115 118 121 123 126 128 131 133 136 139 141 144 146 149 151 154 157 159 162 164 167 169 172 175 177 180 182 185 188 190 193 195 198 200 203 206 208 211 213 216 218 221 224 226 229 231 234 236 239 242 244 247 249 252 254 
0 2 5 7 10 12 15 18 20 23 25 28 30 33 36 38 41 43 46 48 51 54 56 59 61 64 66 69 72 74 77 79 82 84 87 90 92 95 97 100 103 105 108 110 113 115 118 121 123 126 128 131 133 136 139 141 144 146 149 151 154 157 159 162 164 167 169 172 175 177 180 182 185 188 190 193 195 198 200 203 206 208 211 213 216 218 221 224 226 229 231 234 236 239 242 244 247 249 252 254 
0 2 5 7 10 12 15 18 20 23 25 28 30 33 36 38 41 43 46 48 51 54 56 59 61 64 66 69 72 74 77 79 82 84 87 90 92 95 97 100 103 105 108 110 113 115 118 121 123 126 128 131 133 136 139 141 144 146 149 151 154 157 159 162 164 167 169 172 175 177 180 182 185 188 190 193 195 198 200 203 206 208 211 213 216 218 221 224 226 229 231 234 236 239 242 244 247 249 252 254 
0 2 5 7 10 12 15 18 20 23 25 28 30 33 36 38 41 43 46 48 51 54 56 59 61 64 66 69 72 74 77 79 82 84 87 90 92 95 97 100 103 105 108 110 113 115 118 121 123 126 128 131 133 136 139 141 144 146 149 151 154 157 159 162 164 167 169 172 175 177 180 182 185 188 190 193 195 198 200 203 206 208 211 213 216 218 221 224 226 229 231 234 236 239 242 244 247 249 252 254 
0 2 5 7 10 12 15 18 20 23 25 28 30 33 36 38 41 43 46 48 51 54 56 59 61 64 66 69 72 74 77 79 82 84 87 90 92 95 97 100 103 105 108 110 113 115 118 121 123 126 128 131 133 136 139 141 144 146 149 151 154 157 159 162 164 167 169 172 175 177 180 182 185 188 190 193 195 198 200 203 206 208 211 213 216 218 221 224 226 229 231 234 236 239 242 244 247 249 252 254 
0 2 5 7 10 12 15 18 20 23 25 28 30 33 36 38 41 43 46 48 51 54 56 59 61 64 66 69 72 74 77 79 82 84 87 90 92 95 97 100 103 105 108 110 113 115 118 121 123 126 128 131 133 136 139 141 144 146 149 151 154 157 159 162 164 167 169 172 175 177 180 182 185 188 190 193 195 198 200 203 206 208 211 213 216 218 221 224 226 229 231 234 236 239 242 244 247 249 252 254 
0 2 5 7 10 12 15 18 20 23 25 28 30 33 36 38 41 43 46 48 51 54 56 59 61 64 66 69 72 74 77 79 82 84 87 90 92 95 97 100 103 105 108 110 113 115 118 121 123 126 128 131 133 136 139 141 144 146 149 151 154 157 159 162 164 167 169 172 175 177 180 182 185 188 190 193 195 198 200 203 206 208 211 213 216 218 221 224 226 229 231 234 236 239 242 244 247 249 252 254 
0 2 5 7 10 12 15 18 20 23 25 28 30 33 36 38 41 43 46 48 51 54 56 59 61 64 66 69 72 74 77 79 82 84 87 90 92 95 97 100 103 105 108 110 113 115 118 121 123 126 128 131 133 136 139 141 144 146 149 151 154 157 159 162 164 167 169 172 175 177 180 182 185 188 190 193 195 198 200 203 206 208 211 213 216 218 221 224 226 229 231 234 236 239 242 244 247 249 252 254 
0 2 5 7 10 12 15 18 20 23 25 28 30 33 36 38 41 43 46 48 51 54 56 59 61 64 66 69 72 74 77 79 82 84 87 90 92 95 97 100 103 105 108 110 113 115 118 121 123 126 128 131 133 136 139 141 144 146 149 151 154 157 159 162 164 167 169 172 175 177 180 182 185 188 190 193 195 198 200 203 206 208 211 213 216 218 221 224 226 229 231 234 236 239 242 244 247 249 252 254 
0 2 5 7 10 12 15 18 20 23 25 28 30 33 36 38 41 43 46 48 51 54 56 59 61 64 66 69 72 74 77 79 82 84 87 90 92 95 97 100 103 105 108 110 113 115 118 121 123 126 128 131 133 136 139 141 144 146 149 151 154 157 159 162 164 167 169 172 175 177 180 182 185 188 190 193 195 198 200 203 206 208 211 213 216 218 221 224 226 229 231 234 236 239 242 244 247 249 252 254 
0 2 5 7 10 12 15 18 20 23 25 28 30 33 36 38 41 43 46 48 51 54 56 59 61 64 66 69 72 74 77 79 82 84 87 90 92 95 97 100 103 105 108 110 113 115 118 121 123 126 128 131 133 136 139 141 144 146 149 151 154 157 159 162 164 167 169 172 175 177 180 182 185 188 190 193 195 198 200 203 206 208 211 213 216 218 221 224 226 229 231 234 236 239 242 244 247 249 252 254 
0 2 5 7 10 12 15 18 20 23 25 28 30 33 36 38 41 43 46 48 51 54 56 59 61 64 66 69 72 74 77 79 82 84 87 90 92 95 97 100 103 105 108 110 113 115 118 121 123 126 128 131 133 136 139 141 144 146 149 151 154 157 159 162 164 167 169 172 175 177 180 182 185 188 190 193 195 198 200 203 206 208 211 213 216 218 221 224 226 229 231 234 236 239 242 244 247 249 252 254 
0 2 5 7 10 12 15 18 20 23 25 28 30 33 36 38 41 43 46 48 51 54 56 59 61 64 66 69 72 74 77 79 82 84 87 90 92 95 97 100 103 105 108 110 113 115 118 121 123 126 128 131 133 136 139 141 144 146 149 151 154 157 159 162 164 167 169 172 175 177 180 182 185 188 190 193 195 198 200 203 206 208 211 213 216 218 221 224 226 229 231 234 236 239 242 244 247 249 252 254 
0 2 5 7 10 12 15 18 20 23 25 28 30 33 36 38 41 43 46 48 51 54 56 59 61 64 66 69 72 74 77 79 82 84 87 90 92 95 97 100 103 105 108 110 113 115 118 121 123 126 128 131 133 136 139 141 144 146 149 151 154 157 159 162 164 167 169 172 175 177 180 182 185 188 190 193 195 198 200 203 206 208 211 213 216 218 221 224 226 229 231 234 236 239 242 244 247 249 252 254 
0 2 5 7 10 12 15 18 20 23 25 28 30 33 36 38 41 43 46 48 51 54 56 59 61 64 66 69 72 74 77 79 82 84 87 90 92 95 97 100 103 105 108 110 113 115 118 121 123 126 128 131 133 136 139 141 144 146 149 151 154 157 159 162 164 167 169 172 175 177 180 182 185 188 190 193 195 198 200 203 206 208 211 213 216 218 221 224 226 229 231 234 236 239 242 244 247 249 252 254 
0 2 5 7 10 12 15 18 20 23 25 28 30 33 36 38 41 43 46 48 51 54 56 59 61 64 66 69 72 74 77 79 82 84 87 90 92 95 97 100 103 105 108 110 113 115 118 121 123 126 128 131 133 136 139 141 144 146 149 151 154 157 159 162 164 167 169 172 175 177 180 182 185 188 190 193 195 198 200 203 206 208 211 213 216 218 221 224 226 229 231 234 236 239 242 244 247 249 252 254 
0 2 5 7 10 12 15 18 20 23 25 28 30 33 36 38 41 43 46 48 51 54 56 59 61 64 66 69 72 74 77 79 82 84 87 90 92 95 97 100 103 105 108 110 113 115 118 121 123 126 128 131 133 136 139 141 144 146 149 151 154 157 159 162 164 167 169 172 175 177 180 182 185 188 190 193 195 198 200 203 206 208 211 213 216 218 221 224 226 229 231 234 236 239 242 244 247 249 252 254 
0 2 5 7 10 12 15 18 20 23 25 28 30 33 36 38 41 43 46 48 51 54 56 59 61 64 66 69 72 74 77 79 82 84 87 90 92 95 97 100 103 105 108 110 113 115 118 121 123 126 128 131 133 136 139 141 144 146 149 151 154 157 159 162 164 167 169 172 175 177 180 182 185 188 190 193 195 198 200 203 206 208 211 213 216 218 221 224 226 229 231 234 236 239 242 244 247 249 252 254 
0 2 5 7 10 12 15 18 20 23 25 28 30 33 36 38 41 43 46 48 51 54 56 59 61 64 66 69 72 74 77 79 82 84 87 90 92 95 97 100 103 105 108 110 113 115 118 121 123 126 128 131 133 136 139 141 144 146 149 151 154 157 159 162 164 167 169 172 175 177 180 182 185 188 190 193 195 198 200 203 206 208 211 213 216 218 221 224 226 229 231 234 236 239 242 244 247 249 252 254 
0 2 5 7 10 12 15 18 20 23 25 28 30 33 36 38 41 43 46 48 51 54 56 59 61 64 66 69 72 74 77 79 82 84 87 90 92 95 97 100 103 105 108 110 113 115 118 121 123 126 128 131 133 136 139 141 144 146 149 151 154 157 159 162 164 167 169 172 175 177 180 182 185 188 190 193 195 198 200 203 206 208 211 213 216 218 221 224 226 229 231 234 236 239 242 244 247 249 252 254 
0 2 5 7 10 12 15 18 20 23 25 28 30 33 36 38 41 43 46 48 51 54 56 59 61 64 66 69 72 74 77 79 82 84 87 90 92 95 97 100 103 105 108 110 113 115 118 121 123 126 128 131 133 136 139 141 144 146 149 151 154 157 159 162 164 167 169 172 175 177 180 182 185 188 190 193 195 198 200 203 206 208 211 213 216 218 221 224 226 229 231 234 236 239 242 244 247 249 252 254 
0 2 5 7 10 12 15 18 20 23 25 28 30 33 36 38 41 43 46 48 51 54 56 59 61 64 66 69 72 74 77 79 82 84 87 90 92 95 97 100 103 105 108 110 113 115 118 121 123 126 128 131 133 136 139 141 144 146 149 151 154 157 159 162 164 167 169 172 175 177 180 182 185 188 190 193 195 198 200 203 206 208 211 213 216 218 221 224 226 229 231 234 236 239 242 244 247 249 252 254 
0 2 5 7 10 12 15 18 20 23 25 28 30 33 36 38 41 43 46 48 51 54 56 59 61 64 66 69 72 74 77 79 82 84 87 90 92 95 97 100 103 105 108 110 113 115 118 121 123 126 128 131 133 136 139 141 144 146 149 151 154 157 159 162 164 167 169 172 175 177 180 182 185 188 190 193 195 198 200 203 206 208 211 213 216 218 221 224 226 229 231 234 236 239 242 244 247 249 252 254 
0 2 5 7 10 12 15 18 20 23 25 28 30 33 36 38 41 43 46 48 51 54 56 59 61 64 66 69 72 74 77 79 82 84 87 90 92 95 97 100 103 105 108 110 113 115 118 121 123 126 128 131 133 136 139 141 144 146 149 151 154 157 159 162 164 167 169 172 175 177 180 182 185 188 190 193 195 198 200 203 206 208 211 213 216 218 221 224 226 229 231 234 236 239 242 244 247 249 252 254 
0 2 5 7 10 12 15 18 20 23 25 28 30 33 36 38 41 43 46 48 51 54 56 59 61 64 66 69 72 74 77 79 82 84 87 90 92 95 97 100 103 105 108 110 113 115 118 121 123 126 128 131 133 136 139 141 144 146 149 151 154 157 159 162 164 167 169 172 175 177 180 182 185 188 190 193 195 198 200 203 206 208 211 213 216 218 221 224 226 229 231 234 236 239 242 244 247 249 252 254 
0 2 5 7 10 12 15 18 20 23 25 28 30 33 36 38 41 43 46 48 51 54 56 59 61 64 66 69 72 74 77 79 82 84 87 90 92 95 97 100 103 105 108 110 113 115 118 121 123 126 128 131 133 136 139 141 144 146 149 151 154 157 159 162 164 167 169 172 175 177 180 182 185 188 190 193 195 198 200 203 206 208 211 213 216 218 221 224 226 229 231 234 236 239 242 244 247 249 252 254 
0 2 5 7 10 12 15 18 20 23 25 28 30 33 36 38 41 43 46 48 51 54 56 59 61 64 66 69 72 74 77 79 82 84 87 90 92 95 97 100 103 105 108 110 113 115 118 121 123 126 128 131 133 136 139 141 144 146 149 151 154 157 159 162 164 167 169 172 175 177 180 182 185 188 190 193 195 198 200 203 206 208 211 213 216 218 221 224 226 229 231 234 236 239 242 244 247 249 252 254 
0 2 5 7 10 12 15 18 20 23 25 28 30 33 36 38 41 43 46 48 51 54 56 59 61 64 66 69 72 74 77 79 82 84 87 90 92 95 97 100 103 105 108 110 113 115 118 121 123 126 128 131 133 136 139 141 144 146 149 151 154 157 159 162 164 167 169 172 175 177 180 182 185 188 190 193 195 198 200 203 206 208 211 213 216 218 221 224 226 229 231 234 236 239 242 244 247 249 252 254 
0 2 5 7 10 12 15 18 20 23 25 28 30 33 36 38 41 43 46 48 51 54 56 59 61 64 66 69 72 74 77 79 82 84 87 90 92 95 97 100 103 105 108 110 113 115 118 121 123 126 128 131 133 136 139 141 144 146 149 151 154 157 159 162 164 167 169 172 175 177 180 182 185 188 190 193 195 198 200 203 206 208 211 213 216 218 221 224 226 229 231 234 236 239 242 244 247 249 252 254 
0 2 5 7 10 12 15 18 20 23 25 28 30 33 36 38 41 43 46 48 51 54 56 59 61 64 66 69 72 74 77 79 82 84 87 90 92 95 97 100 103 105 108 110 113 115 118 121 123 126 128 131 133 136 139 141 144 146 149 151 154 157 159 162 164 167 169 172 175 177 180 182 185 188 190 193 195 198 200 203 206 208 211 213 216 218 221 224 226 229 231 234 236 239 242 244 247 249 252 254 
0 2 5 7 10 12 15 18 20 23 25 28 30 33 36 38 41 43 46 48 51 54 56 59 61 64 66 69 72 74 77 79 82 84 87 90 92 95 97 100 103 105 108 110 113 115 118 121 123 126 128 131 133 136 139 141 144 146 149 151 154 157 159 162 164 167 169 172 175 177 180 182 185 188 190 193 195 198 200 203 206 208 211 213 216 218 221 224 226 229 231 234 236 239 242 244 247 249 252 254 
0 2 5 7 10 12 15 18 20 23 25 28 30 33 36 38 41 43 46 48 51 54 56 59 61 64 66 69 72 74 77 79 82 84 87 90 92 95 97 100 103 105 108 110 113 115 118 121 123 126 128 131 133 136 139 141 144 146 149 151 154 157 159 162 164 167 169 172 175 177 180 182 185 188 190 193 195 198 200 203 206 208 211 213 216 218 221 224 226 229 231 234 236 239 242 244 247 249 252 254 
0 2 5 7 10 12 15 18 20 23 25 28 30 33 36 38 41 43 46 48 51 54 56 59 61 64 66 69 72 74 77 79 82 84 87 90 92 95 97 100 103 105 108 110 113 115 118 121 123 126 128 131 133 136 139 141 144 146 149 151 154 157 159 162 164 167 169 172 175 177 180 182 185 188 190 193 195 198 200 203 206 208 211 213 216 218 221 224 226 229 231 234 236 239 242 244 247 249 252 254 
0 2 5 7 10 12 15 18 20 23 25 28 30 33 36 38 41 43 46 48 51 54 56 59 61 64 66 69 72 74 77 79 82 84 87 90 92 95 97 100 103 105 108 110 113 115 118 121 123 126 128 131 133 136 139 141 144 146 149 151 154 157 159 162 164 167 169 172 175 177 180 182 185 188 190 193 195 198 200 203 206 208 211 213 216 218 221 224 226 229 231 234 236 239 242 244 247 249 252 254 
0 2 5 7 10 12 15 18 20 23 25 28 30 33 36 38 41 43 46 48 51 54 56 59 61 64 66 69 72 74 77 79 82 84 87 90 92 95 97 100 103 105 108 110 113 115 118 121 123 126 128 131 133 136 139 141 144 146 149 151 154 157 159 162 164 167 169 172 175 177 180 182 185 188 190 193 195 198 200 203 206 208 211 213 216 218 221 224 226 229 231 234 236 239 242 244 247 249 252 254 
